<mxfile host="65bd71144e">
    <diagram id="JpEaxbwJyAcP70NvgZvK" name="diagram03">
        <mxGraphModel dx="1295" dy="456" grid="0" gridSize="5" guides="1" tooltips="0" connect="0" arrows="0" fold="1" page="0" pageScale="1" pageWidth="1100" pageHeight="850" background="#111" math="0" shadow="0">
            <root>
                <mxCell id="0"/>
                <mxCell id="1" parent="0"/>
                <mxCell id="IRw6BRkGeMEhg-LZAqxV-19" value="mv rd, rs" parent="0"/>
                <mxCell id="IRw6BRkGeMEhg-LZAqxV-20" value="" style="rounded=1;whiteSpace=wrap;html=1;fontSize=16;fillColor=none;arcSize=10;strokeWidth=2;" parent="IRw6BRkGeMEhg-LZAqxV-19" vertex="1">
                    <mxGeometry x="620" y="200" width="120" height="40" as="geometry"/>
                </mxCell>
                <mxCell id="IRw6BRkGeMEhg-LZAqxV-21" value="Destination&amp;nbsp;&lt;span style=&quot;text-align: center;&quot;&gt;Register&lt;/span&gt;&amp;nbsp;" style="text;html=1;strokeColor=none;fillColor=none;align=left;verticalAlign=middle;whiteSpace=wrap;rounded=0;fontSize=16;" parent="IRw6BRkGeMEhg-LZAqxV-19" vertex="1">
                    <mxGeometry x="604" y="175" width="152" height="25" as="geometry"/>
                </mxCell>
                <mxCell id="IRw6BRkGeMEhg-LZAqxV-22" value="" style="endArrow=classic;html=1;rounded=1;fontSize=12;startSize=14;endSize=6;sourcePerimeterSpacing=8;targetPerimeterSpacing=8;entryX=1;entryY=0.5;entryDx=0;entryDy=0;exitX=0;exitY=0.5;exitDx=0;exitDy=0;endFill=1;flowAnimation=1;orthogonalLoop=0;orthogonal=0;enumerate=0;comic=0;strokeWidth=2;" parent="IRw6BRkGeMEhg-LZAqxV-19" source="IRw6BRkGeMEhg-LZAqxV-23" target="IRw6BRkGeMEhg-LZAqxV-20" edge="1">
                    <mxGeometry width="50" height="50" relative="1" as="geometry">
                        <mxPoint x="819.999999999997" y="221.25" as="sourcePoint"/>
                        <mxPoint x="680" y="200" as="targetPoint"/>
                        <Array as="points"/>
                    </mxGeometry>
                </mxCell>
                <mxCell id="IRw6BRkGeMEhg-LZAqxV-23" value="" style="rounded=1;whiteSpace=wrap;html=1;fontSize=16;fillColor=none;arcSize=10;strokeWidth=2;" parent="IRw6BRkGeMEhg-LZAqxV-19" vertex="1">
                    <mxGeometry x="860" y="200" width="120" height="40" as="geometry"/>
                </mxCell>
                <mxCell id="IRw6BRkGeMEhg-LZAqxV-24" value="Source&amp;nbsp;&lt;span style=&quot;text-align: center;&quot;&gt;Register&lt;/span&gt;" style="text;html=1;strokeColor=none;fillColor=none;align=left;verticalAlign=middle;whiteSpace=wrap;rounded=0;fontSize=16;" parent="IRw6BRkGeMEhg-LZAqxV-19" vertex="1">
                    <mxGeometry x="860" y="175" width="150" height="25" as="geometry"/>
                </mxCell>
                <mxCell id="IRw6BRkGeMEhg-LZAqxV-25" value="" style="rounded=1;whiteSpace=wrap;html=1;fontSize=16;fillColor=none;arcSize=10;strokeWidth=2;" parent="IRw6BRkGeMEhg-LZAqxV-19" vertex="1">
                    <mxGeometry x="620" y="280" width="120" height="40" as="geometry"/>
                </mxCell>
                <mxCell id="IRw6BRkGeMEhg-LZAqxV-26" value="rd" style="text;html=1;strokeColor=none;fillColor=none;align=left;verticalAlign=middle;whiteSpace=wrap;rounded=0;fontSize=16;" parent="IRw6BRkGeMEhg-LZAqxV-19" vertex="1">
                    <mxGeometry x="620" y="255" width="120" height="25" as="geometry"/>
                </mxCell>
                <mxCell id="IRw6BRkGeMEhg-LZAqxV-27" value="" style="endArrow=classic;html=1;rounded=1;fontSize=12;startSize=14;endSize=6;sourcePerimeterSpacing=8;targetPerimeterSpacing=8;entryX=1;entryY=0.5;entryDx=0;entryDy=0;exitX=0;exitY=0.5;exitDx=0;exitDy=0;endFill=1;flowAnimation=1;orthogonalLoop=0;orthogonal=0;enumerate=0;comic=0;strokeWidth=2;" parent="IRw6BRkGeMEhg-LZAqxV-19" source="IRw6BRkGeMEhg-LZAqxV-28" target="IRw6BRkGeMEhg-LZAqxV-25" edge="1">
                    <mxGeometry width="50" height="50" relative="1" as="geometry">
                        <mxPoint x="819.999999999997" y="306.25" as="sourcePoint"/>
                        <mxPoint x="680" y="285" as="targetPoint"/>
                        <Array as="points"/>
                    </mxGeometry>
                </mxCell>
                <mxCell id="IRw6BRkGeMEhg-LZAqxV-28" value="" style="rounded=1;whiteSpace=wrap;html=1;fontSize=16;fillColor=none;arcSize=10;strokeWidth=2;" parent="IRw6BRkGeMEhg-LZAqxV-19" vertex="1">
                    <mxGeometry x="860" y="280" width="120" height="40" as="geometry"/>
                </mxCell>
                <mxCell id="IRw6BRkGeMEhg-LZAqxV-29" value="rs" style="text;html=1;strokeColor=none;fillColor=none;align=left;verticalAlign=middle;whiteSpace=wrap;rounded=0;fontSize=16;" parent="IRw6BRkGeMEhg-LZAqxV-19" vertex="1">
                    <mxGeometry x="860" y="255" width="150" height="25" as="geometry"/>
                </mxCell>
                <mxCell id="IRw6BRkGeMEhg-LZAqxV-30" value="Register" style="text;html=1;strokeColor=none;fillColor=none;align=right;verticalAlign=middle;whiteSpace=wrap;rounded=0;fontSize=16;" parent="IRw6BRkGeMEhg-LZAqxV-19" vertex="1">
                    <mxGeometry x="530" y="287.5" width="80" height="25" as="geometry"/>
                </mxCell>
                <mxCell id="IRw6BRkGeMEhg-LZAqxV-31" value="Register" style="text;html=1;strokeColor=none;fillColor=none;align=left;verticalAlign=middle;whiteSpace=wrap;rounded=0;fontSize=16;" parent="IRw6BRkGeMEhg-LZAqxV-19" vertex="1">
                    <mxGeometry x="990" y="287.5" width="80" height="25" as="geometry"/>
                </mxCell>
                <mxCell id="IRw6BRkGeMEhg-LZAqxV-32" value="" style="rounded=1;whiteSpace=wrap;html=1;fontSize=16;fillColor=none;arcSize=10;strokeWidth=2;" parent="IRw6BRkGeMEhg-LZAqxV-19" vertex="1">
                    <mxGeometry x="620" y="360" width="120" height="40" as="geometry"/>
                </mxCell>
                <mxCell id="IRw6BRkGeMEhg-LZAqxV-33" value="rd" style="text;html=1;strokeColor=none;fillColor=none;align=left;verticalAlign=middle;whiteSpace=wrap;rounded=0;fontSize=16;" parent="IRw6BRkGeMEhg-LZAqxV-19" vertex="1">
                    <mxGeometry x="620" y="335" width="120" height="25" as="geometry"/>
                </mxCell>
                <mxCell id="IRw6BRkGeMEhg-LZAqxV-34" value="" style="endArrow=classic;html=1;rounded=1;fontSize=12;startSize=14;endSize=6;sourcePerimeterSpacing=8;targetPerimeterSpacing=8;entryX=1;entryY=0.5;entryDx=0;entryDy=0;exitX=0;exitY=0.5;exitDx=0;exitDy=0;endFill=1;flowAnimation=1;orthogonalLoop=0;orthogonal=0;enumerate=0;comic=0;strokeWidth=2;" parent="IRw6BRkGeMEhg-LZAqxV-19" source="IRw6BRkGeMEhg-LZAqxV-35" target="IRw6BRkGeMEhg-LZAqxV-32" edge="1">
                    <mxGeometry width="50" height="50" relative="1" as="geometry">
                        <mxPoint x="819.999999999997" y="381.25" as="sourcePoint"/>
                        <mxPoint x="680" y="360" as="targetPoint"/>
                        <Array as="points"/>
                    </mxGeometry>
                </mxCell>
                <mxCell id="IRw6BRkGeMEhg-LZAqxV-35" value="0x123ABC" style="rounded=1;whiteSpace=wrap;html=1;fontSize=16;fillColor=none;arcSize=10;strokeWidth=2;" parent="IRw6BRkGeMEhg-LZAqxV-19" vertex="1">
                    <mxGeometry x="860" y="360" width="120" height="40" as="geometry"/>
                </mxCell>
                <mxCell id="IRw6BRkGeMEhg-LZAqxV-36" value="rs" style="text;html=1;strokeColor=none;fillColor=none;align=left;verticalAlign=middle;whiteSpace=wrap;rounded=0;fontSize=16;" parent="IRw6BRkGeMEhg-LZAqxV-19" vertex="1">
                    <mxGeometry x="860" y="335" width="150" height="25" as="geometry"/>
                </mxCell>
                <mxCell id="IRw6BRkGeMEhg-LZAqxV-37" value="x11 (a1)" style="text;html=1;strokeColor=none;fillColor=none;align=right;verticalAlign=middle;whiteSpace=wrap;rounded=0;fontSize=16;" parent="IRw6BRkGeMEhg-LZAqxV-19" vertex="1">
                    <mxGeometry x="530" y="367.5" width="80" height="25" as="geometry"/>
                </mxCell>
                <mxCell id="IRw6BRkGeMEhg-LZAqxV-38" value="x10 (a0)" style="text;html=1;strokeColor=none;fillColor=none;align=left;verticalAlign=middle;whiteSpace=wrap;rounded=0;fontSize=16;" parent="IRw6BRkGeMEhg-LZAqxV-19" vertex="1">
                    <mxGeometry x="990" y="367.5" width="80" height="25" as="geometry"/>
                </mxCell>
                <mxCell id="IRw6BRkGeMEhg-LZAqxV-39" value="&lt;span style=&quot;color: rgb(240, 240, 240); font-family: Helvetica; font-size: 16px; font-style: normal; font-variant-ligatures: normal; font-variant-caps: normal; font-weight: 400; letter-spacing: normal; orphans: 2; text-align: center; text-indent: 0px; text-transform: none; widows: 2; word-spacing: 0px; -webkit-text-stroke-width: 0px; background-color: rgb(24, 20, 29); text-decoration-thickness: initial; text-decoration-style: initial; text-decoration-color: initial; float: none; display: inline !important;&quot;&gt;0x123ABC&lt;/span&gt;" style="rounded=1;whiteSpace=wrap;html=1;fontSize=16;fillColor=none;arcSize=10;strokeWidth=2;" parent="IRw6BRkGeMEhg-LZAqxV-19" vertex="1">
                    <mxGeometry x="620" y="440" width="120" height="40" as="geometry"/>
                </mxCell>
                <mxCell id="IRw6BRkGeMEhg-LZAqxV-40" value="rd" style="text;html=1;strokeColor=none;fillColor=none;align=left;verticalAlign=middle;whiteSpace=wrap;rounded=0;fontSize=16;" parent="IRw6BRkGeMEhg-LZAqxV-19" vertex="1">
                    <mxGeometry x="620" y="415" width="120" height="25" as="geometry"/>
                </mxCell>
                <mxCell id="IRw6BRkGeMEhg-LZAqxV-41" value="" style="endArrow=classic;html=1;rounded=1;fontSize=12;startSize=14;endSize=6;sourcePerimeterSpacing=8;targetPerimeterSpacing=8;entryX=1;entryY=0.5;entryDx=0;entryDy=0;exitX=0;exitY=0.5;exitDx=0;exitDy=0;endFill=1;flowAnimation=1;orthogonalLoop=0;orthogonal=0;enumerate=0;comic=0;strokeWidth=2;" parent="IRw6BRkGeMEhg-LZAqxV-19" source="IRw6BRkGeMEhg-LZAqxV-42" target="IRw6BRkGeMEhg-LZAqxV-39" edge="1">
                    <mxGeometry width="50" height="50" relative="1" as="geometry">
                        <mxPoint x="819.999999999997" y="461.25" as="sourcePoint"/>
                        <mxPoint x="680" y="440" as="targetPoint"/>
                        <Array as="points"/>
                    </mxGeometry>
                </mxCell>
                <mxCell id="IRw6BRkGeMEhg-LZAqxV-42" value="0x123ABC" style="rounded=1;whiteSpace=wrap;html=1;fontSize=16;fillColor=none;arcSize=10;strokeWidth=2;" parent="IRw6BRkGeMEhg-LZAqxV-19" vertex="1">
                    <mxGeometry x="860" y="440" width="120" height="40" as="geometry"/>
                </mxCell>
                <mxCell id="IRw6BRkGeMEhg-LZAqxV-43" value="rs" style="text;html=1;strokeColor=none;fillColor=none;align=left;verticalAlign=middle;whiteSpace=wrap;rounded=0;fontSize=16;" parent="IRw6BRkGeMEhg-LZAqxV-19" vertex="1">
                    <mxGeometry x="860" y="415" width="150" height="25" as="geometry"/>
                </mxCell>
                <mxCell id="IRw6BRkGeMEhg-LZAqxV-44" value="x11 (a1)" style="text;html=1;strokeColor=none;fillColor=none;align=right;verticalAlign=middle;whiteSpace=wrap;rounded=0;fontSize=16;" parent="IRw6BRkGeMEhg-LZAqxV-19" vertex="1">
                    <mxGeometry x="530" y="447.5" width="80" height="25" as="geometry"/>
                </mxCell>
                <mxCell id="IRw6BRkGeMEhg-LZAqxV-45" value="x10 (a0)" style="text;html=1;strokeColor=none;fillColor=none;align=left;verticalAlign=middle;whiteSpace=wrap;rounded=0;fontSize=16;" parent="IRw6BRkGeMEhg-LZAqxV-19" vertex="1">
                    <mxGeometry x="990" y="447.5" width="80" height="25" as="geometry"/>
                </mxCell>
                <mxCell id="IRw6BRkGeMEhg-LZAqxV-46" value="&lt;font color=&quot;#00cc00&quot;&gt;mv&lt;/font&gt;" style="text;html=1;strokeColor=none;fillColor=none;align=left;verticalAlign=middle;whiteSpace=wrap;rounded=0;fontSize=16;fontFamily=Cascadia Code;" parent="IRw6BRkGeMEhg-LZAqxV-19" vertex="1">
                    <mxGeometry x="785" y="200" width="35" height="20" as="geometry"/>
                </mxCell>
                <mxCell id="IRw6BRkGeMEhg-LZAqxV-47" value="&lt;font color=&quot;#00cc00&quot;&gt;mv&lt;/font&gt;" style="text;html=1;strokeColor=none;fillColor=none;align=left;verticalAlign=middle;whiteSpace=wrap;rounded=0;fontSize=16;fontFamily=Cascadia Code;" parent="IRw6BRkGeMEhg-LZAqxV-19" vertex="1">
                    <mxGeometry x="785" y="280" width="35" height="20" as="geometry"/>
                </mxCell>
                <mxCell id="IRw6BRkGeMEhg-LZAqxV-48" value="&lt;span style=&quot;color: rgb(0, 204, 0);&quot;&gt;mv rd, rs&lt;/span&gt;" style="text;html=1;strokeColor=none;fillColor=none;align=left;verticalAlign=middle;whiteSpace=wrap;rounded=0;fontSize=16;fontFamily=Cascadia Code;" parent="IRw6BRkGeMEhg-LZAqxV-19" vertex="1">
                    <mxGeometry x="756" y="360" width="98" height="20" as="geometry"/>
                </mxCell>
                <mxCell id="IRw6BRkGeMEhg-LZAqxV-49" value="&lt;font color=&quot;#00cc00&quot;&gt;mv a1, a0&lt;/font&gt;" style="text;html=1;strokeColor=none;fillColor=none;align=left;verticalAlign=middle;whiteSpace=wrap;rounded=0;fontSize=16;fontFamily=Cascadia Code;" parent="IRw6BRkGeMEhg-LZAqxV-19" vertex="1">
                    <mxGeometry x="756" y="436" width="99" height="20" as="geometry"/>
                </mxCell>
                <mxCell id="IRw6BRkGeMEhg-LZAqxV-50" value="&lt;font style=&quot;font-size: 22px;&quot;&gt;mv rd, rs&lt;/font&gt;" style="text;html=1;strokeColor=none;fillColor=none;align=center;verticalAlign=middle;whiteSpace=wrap;rounded=0;fontSize=22;fontFamily=Cascadia Code;fontColor=#FFFFFF;" parent="IRw6BRkGeMEhg-LZAqxV-19" vertex="1">
                    <mxGeometry x="542.5" y="120" width="285" height="40" as="geometry"/>
                </mxCell>
                <mxCell id="IRw6BRkGeMEhg-LZAqxV-5" value="li rd, immediate" parent="0"/>
                <mxCell id="IRw6BRkGeMEhg-LZAqxV-6" value="Register" style="text;html=1;strokeColor=none;fillColor=none;align=right;verticalAlign=middle;whiteSpace=wrap;rounded=0;fontSize=16;" parent="IRw6BRkGeMEhg-LZAqxV-5" vertex="1">
                    <mxGeometry x="-50" y="207.5" width="80" height="25" as="geometry"/>
                </mxCell>
                <mxCell id="IRw6BRkGeMEhg-LZAqxV-8" value="" style="rounded=1;whiteSpace=wrap;html=1;fontSize=16;fillColor=none;arcSize=10;strokeWidth=2;" parent="IRw6BRkGeMEhg-LZAqxV-5" vertex="1">
                    <mxGeometry x="40" y="200" width="120" height="40" as="geometry"/>
                </mxCell>
                <mxCell id="IRw6BRkGeMEhg-LZAqxV-9" value="x10 (a0)" style="text;html=1;strokeColor=none;fillColor=none;align=right;verticalAlign=middle;whiteSpace=wrap;rounded=0;fontSize=16;" parent="IRw6BRkGeMEhg-LZAqxV-5" vertex="1">
                    <mxGeometry x="-50" y="287.5" width="80" height="25" as="geometry"/>
                </mxCell>
                <mxCell id="IRw6BRkGeMEhg-LZAqxV-10" value="" style="rounded=1;whiteSpace=wrap;html=1;fontSize=16;fillColor=none;arcSize=9;strokeWidth=2;" parent="IRw6BRkGeMEhg-LZAqxV-5" vertex="1">
                    <mxGeometry x="40" y="280" width="120" height="40" as="geometry"/>
                </mxCell>
                <mxCell id="IRw6BRkGeMEhg-LZAqxV-11" value="123" style="ellipse;whiteSpace=wrap;html=1;fontSize=16;fillColor=none;" parent="IRw6BRkGeMEhg-LZAqxV-5" vertex="1">
                    <mxGeometry x="240" y="290" width="40" height="20" as="geometry"/>
                </mxCell>
                <mxCell id="IRw6BRkGeMEhg-LZAqxV-12" value="x10 (a0)" style="text;html=1;strokeColor=none;fillColor=none;align=right;verticalAlign=middle;whiteSpace=wrap;rounded=0;fontSize=16;" parent="IRw6BRkGeMEhg-LZAqxV-5" vertex="1">
                    <mxGeometry x="-50" y="367.5" width="80" height="25" as="geometry"/>
                </mxCell>
                <mxCell id="IRw6BRkGeMEhg-LZAqxV-13" value="123" style="rounded=1;whiteSpace=wrap;html=1;fontSize=16;fillColor=none;arcSize=8;strokeWidth=2;" parent="IRw6BRkGeMEhg-LZAqxV-5" vertex="1">
                    <mxGeometry x="40" y="360" width="120" height="40" as="geometry"/>
                </mxCell>
                <mxCell id="IRw6BRkGeMEhg-LZAqxV-14" value="&lt;span style=&quot;text-align: left;&quot;&gt;Constant&lt;/span&gt;" style="ellipse;whiteSpace=wrap;html=1;fontSize=16;fillColor=none;strokeWidth=2;" parent="IRw6BRkGeMEhg-LZAqxV-5" vertex="1">
                    <mxGeometry x="240" y="200" width="80" height="40" as="geometry"/>
                </mxCell>
                <mxCell id="IRw6BRkGeMEhg-LZAqxV-7" value="" style="endArrow=classic;html=1;rounded=1;fontSize=12;startSize=14;endSize=6;sourcePerimeterSpacing=8;targetPerimeterSpacing=8;entryX=1;entryY=0.5;entryDx=0;entryDy=0;exitX=0;exitY=0.5;exitDx=0;exitDy=0;endFill=1;fixDash=0;flowAnimation=1;strokeWidth=2;" parent="IRw6BRkGeMEhg-LZAqxV-5" source="IRw6BRkGeMEhg-LZAqxV-14" target="IRw6BRkGeMEhg-LZAqxV-8" edge="1">
                    <mxGeometry width="50" height="50" relative="1" as="geometry">
                        <mxPoint x="200" y="150" as="sourcePoint"/>
                        <mxPoint x="100" y="200" as="targetPoint"/>
                        <Array as="points"/>
                    </mxGeometry>
                </mxCell>
                <mxCell id="IRw6BRkGeMEhg-LZAqxV-15" value="" style="endArrow=classic;html=1;rounded=1;fontSize=12;startSize=14;endSize=6;sourcePerimeterSpacing=8;targetPerimeterSpacing=8;entryX=1;entryY=0.5;entryDx=0;entryDy=0;exitX=0;exitY=0.5;exitDx=0;exitDy=0;endFill=1;flowAnimation=1;strokeWidth=2;" parent="IRw6BRkGeMEhg-LZAqxV-5" source="IRw6BRkGeMEhg-LZAqxV-11" target="IRw6BRkGeMEhg-LZAqxV-10" edge="1">
                    <mxGeometry width="50" height="50" relative="1" as="geometry">
                        <mxPoint x="240.00000000000296" y="300.63" as="sourcePoint"/>
                        <mxPoint x="160" y="299.38" as="targetPoint"/>
                        <Array as="points"/>
                    </mxGeometry>
                </mxCell>
                <mxCell id="IRw6BRkGeMEhg-LZAqxV-16" value="&lt;font color=&quot;#00cc00&quot;&gt;li&lt;/font&gt;" style="text;html=1;strokeColor=none;fillColor=none;align=left;verticalAlign=middle;whiteSpace=wrap;rounded=0;fontSize=16;fontFamily=Cascadia Code;" parent="IRw6BRkGeMEhg-LZAqxV-5" vertex="1">
                    <mxGeometry x="195" y="200" width="35" height="20" as="geometry"/>
                </mxCell>
                <mxCell id="IRw6BRkGeMEhg-LZAqxV-17" value="&lt;font color=&quot;#00cc00&quot;&gt;li a0, 123&lt;/font&gt;" style="text;html=1;strokeColor=none;fillColor=none;align=left;verticalAlign=middle;whiteSpace=wrap;rounded=0;fontSize=16;fontFamily=Cascadia Code;" parent="IRw6BRkGeMEhg-LZAqxV-5" vertex="1">
                    <mxGeometry x="166" y="269" width="108" height="20" as="geometry"/>
                </mxCell>
                <mxCell id="IRw6BRkGeMEhg-LZAqxV-18" value="&lt;font style=&quot;font-size: 22px;&quot;&gt;li rd, immediate&lt;/font&gt;" style="text;html=1;strokeColor=none;fillColor=none;align=center;verticalAlign=middle;whiteSpace=wrap;rounded=0;fontSize=22;fontFamily=Cascadia Code;fontColor=#FFFFFF;" parent="IRw6BRkGeMEhg-LZAqxV-5" vertex="1">
                    <mxGeometry x="-42.5" y="120" width="285" height="40" as="geometry"/>
                </mxCell>
            </root>
        </mxGraphModel>
    </diagram>
</mxfile>